<svg width="25" height="25" viewBox="0 0 25 25" fill="none" xmlns="http://www.w3.org/2000/svg">
<g clip-path="url(#clip0_193_8095)">
<path d="M17.433 3.42604C17.4327 3.75736 17.3009 4.07501 17.0664 4.30915L10.6747 10.7009C10.4812 10.8943 10.3278 11.1239 10.223 11.3767C10.1183 11.6294 10.0645 11.9003 10.0645 12.1738C10.0645 12.4474 10.1183 12.7183 10.223 12.971C10.3278 13.2238 10.4812 13.4534 10.6747 13.6468L17.0581 20.0302C17.2857 20.2659 17.4117 20.5816 17.4088 20.9092C17.406 21.2369 17.2746 21.5503 17.0429 21.7821C16.8112 22.0138 16.4977 22.1452 16.1701 22.148C15.8424 22.1509 15.5267 22.0249 15.291 21.7973L8.90763 15.4189C8.04932 14.5589 7.56726 13.3935 7.56726 12.1784C7.56726 10.9634 8.04932 9.79799 8.90763 8.93799L15.2994 2.54209C15.4741 2.3672 15.6969 2.24809 15.9394 2.19983C16.1818 2.15156 16.4332 2.17631 16.6616 2.27094C16.89 2.36557 17.0853 2.52584 17.2226 2.73145C17.3599 2.93706 17.4331 3.17879 17.433 3.42604Z" fill="#4110EA"/>
</g>
<defs>
<clipPath id="clip0_193_8095">
<rect width="19.995" height="19.995" fill="white" transform="translate(2.50256 2.17236)"/>
</clipPath>
</defs>
</svg>
