<svg width="32" height="33" viewBox="0 0 32 33" fill="none" xmlns="http://www.w3.org/2000/svg">
<g clip-path="url(#clip0_344_15574)">
<path d="M22.5774 4.84181C22.577 5.28358 22.4012 5.70711 22.0886 6.01929L13.5663 14.5416C13.3084 14.7995 13.1038 15.1057 12.9641 15.4426C12.8245 15.7796 12.7527 16.1408 12.7527 16.5056C12.7527 16.8703 12.8245 17.2315 12.9641 17.5685C13.1038 17.9055 13.3084 18.2116 13.5663 18.4695L22.0775 26.9807C22.3811 27.295 22.549 27.7159 22.5452 28.1528C22.5414 28.5896 22.3662 29.0076 22.0572 29.3165C21.7483 29.6254 21.3304 29.8007 20.8935 29.8045C20.4566 29.8083 20.0357 29.6403 19.7215 29.3368L11.2103 20.8323C10.0658 19.6856 9.4231 18.1317 9.4231 16.5117C9.4231 14.8916 10.0658 13.3378 11.2103 12.1911L19.7326 3.66322C19.9656 3.43003 20.2626 3.27122 20.5859 3.20686C20.9092 3.14251 21.2443 3.17551 21.5489 3.30168C21.8535 3.42786 22.1138 3.64154 22.2968 3.9157C22.4799 4.18985 22.5776 4.51215 22.5774 4.84181Z" fill="#4110EA"/>
</g>
<defs>
<clipPath id="clip0_344_15574">
<rect width="26.66" height="26.66" fill="white" transform="translate(2.67017 3.16992)"/>
</clipPath>
</defs>
</svg>
