<svg width="24" height="24" viewBox="0 0 24 24" fill="none" xmlns="http://www.w3.org/2000/svg">
<g clip-path="url(#clip0_122_5826)">
<path d="M13.7669 11.9999L21.6313 4.13638C22.1195 3.6482 22.1195 2.85671 21.6313 2.36858C21.1431 1.8804 20.3516 1.8804 19.8635 2.36858L11.9999 10.2329L4.13638 2.36858C3.6482 1.8804 2.85671 1.8804 2.36858 2.36858C1.88044 2.85675 1.8804 3.64824 2.36858 4.13638L10.2329 11.9999L2.36858 19.8635C1.8804 20.3517 1.8804 21.1432 2.36858 21.6313C2.85675 22.1194 3.64824 22.1195 4.13638 21.6313L11.9999 13.7669L19.8634 21.6313C20.3516 22.1195 21.1431 22.1195 21.6313 21.6313C22.1194 21.1431 22.1194 20.3516 21.6313 19.8635L13.7669 11.9999Z" fill="#4110EA"/>
</g>
<defs>
<clipPath id="clip0_122_5826">
<rect width="19.995" height="19.995" fill="white" transform="translate(2.00244 2.00244)"/>
</clipPath>
</defs>
</svg>
