<svg width="34" height="34" viewBox="0 0 34 34" fill="none" xmlns="http://www.w3.org/2000/svg">
<g clip-path="url(#clip0_341_2469)">
<path d="M5.98626 25.3312H27.7253C28.3943 25.3312 29.0535 25.17 29.6471 24.8614C30.2407 24.5527 30.7512 24.1056 31.1355 23.5579C31.5197 23.0102 31.7664 22.378 31.8546 21.7148C31.9429 21.0516 31.87 20.3769 31.6423 19.7478L27.6822 8.79918C27.0059 6.36604 25.5512 4.22142 23.5406 2.6933C21.5301 1.16518 19.0743 0.337697 16.5489 0.337402C13.92 0.337361 11.3697 1.23383 9.31905 2.87879C7.26841 4.52375 5.84003 6.81885 5.26977 9.38514L2.0067 19.9381C1.81458 20.5611 1.77139 21.2205 1.88061 21.8633C1.98982 22.5061 2.24839 23.1142 2.6355 23.6389C3.02262 24.1635 3.52748 24.5899 4.10945 24.8838C4.69143 25.1778 5.33427 25.331 5.98626 25.3312Z" fill="#250D77"/>
<path d="M10.1958 28.1084C10.5145 29.6779 11.3659 31.0889 12.6059 32.1024C13.8459 33.1159 15.3981 33.6695 16.9996 33.6695C18.6011 33.6695 20.1533 33.1159 21.3933 32.1024C22.6333 31.0889 23.4848 29.6779 23.8035 28.1084H10.1958Z" fill="#250D77"/>
</g>
<defs>
<clipPath id="clip0_341_2469">
<rect width="33.325" height="33.325" fill="white" transform="translate(0.337372 0.337402)"/>
</clipPath>
</defs>
</svg>
