<svg width="33" height="34" viewBox="0 0 33 34" fill="none" xmlns="http://www.w3.org/2000/svg">
<path d="M22.8027 28.1082C22.157 31.2727 19.3522 33.6624 16.0002 33.6624C12.6483 33.6624 9.84203 31.2727 9.19775 28.1082H22.8027ZM27.8028 10.0572C30.4827 10.0572 32.6627 7.87718 32.6627 5.1973C32.6627 2.51741 30.4827 0.337402 27.8028 0.337402C25.1229 0.337402 22.9429 2.51741 22.9429 5.1973C22.9429 7.87718 25.1229 10.0572 27.8028 10.0572ZM28.1361 12.8176C28.025 12.8218 27.9153 12.8343 27.8028 12.8343C23.5914 12.8343 20.1658 9.40874 20.1658 5.1973C20.1658 3.94206 20.4755 2.75902 21.0156 1.71345C19.3744 0.831723 17.5082 0.337402 15.5503 0.337402C10.1336 0.337402 5.44452 4.09896 4.26981 9.38514L1.00674 19.9339C0.177781 22.6138 2.18145 25.3298 4.9863 25.3298H26.7253C29.6135 25.3298 31.6255 22.4624 30.6424 19.7464L28.1347 12.8148L28.1361 12.8176Z" fill="#250D77"/>
</svg>
