<svg width="30" height="31" viewBox="0 0 30 31" fill="none" xmlns="http://www.w3.org/2000/svg">
<path d="M2.6794 6.77665C2.27532 5.67064 2.57942 4.44591 3.45527 3.65754C4.32904 2.87229 5.57356 2.69525 6.62958 3.20868L25.4692 12.0026C26.4794 12.4754 27.2022 13.3388 27.4948 14.3698H6.71602L2.73876 6.90892C2.71689 6.86622 2.69711 6.82144 2.6794 6.77665ZM6.7306 16.4537L2.82208 23.9261C2.80021 23.9677 2.78146 24.0094 2.76584 24.0531C2.3628 25.1602 2.67003 26.3828 3.54588 27.1701C4.08847 27.6565 4.77374 27.9075 5.46317 27.9075C5.88912 27.9075 6.31611 27.8117 6.71394 27.6169L25.4713 18.8292C26.4846 18.3543 27.2064 17.4879 27.4969 16.4548H6.7306V16.4537Z" fill="#666666"/>
</svg>
