<svg width="27" height="28" viewBox="0 0 27 28" fill="none" xmlns="http://www.w3.org/2000/svg">
<path d="M13.6698 0.669922C11.0334 0.669922 8.45621 1.45171 6.2641 2.91643C4.07199 4.38115 2.36345 6.46301 1.35454 8.89875C0.345619 11.3345 0.081641 14.0147 0.595982 16.6005C1.11032 19.1862 2.37988 21.5614 4.24412 23.4257C6.10835 25.2899 8.48353 26.5595 11.0693 27.0738C13.6551 27.5881 16.3353 27.3242 18.771 26.3152C21.2068 25.3063 23.2886 23.5978 24.7533 21.4057C26.2181 19.2136 26.9998 16.6363 26.9998 13.9999C26.996 10.4658 25.5904 7.07744 23.0914 4.57841C20.5923 2.07938 17.204 0.673744 13.6698 0.669922ZM18.1132 15.1108H14.7807V18.4433C14.7807 18.7379 14.6636 19.0204 14.4553 19.2287C14.247 19.4371 13.9645 19.5541 13.6698 19.5541C13.3752 19.5541 13.0927 19.4371 12.8844 19.2287C12.6761 19.0204 12.559 18.7379 12.559 18.4433V15.1108H9.22652C8.9319 15.1108 8.64936 14.9937 8.44104 14.7854C8.23272 14.5771 8.11568 14.2945 8.11568 13.9999C8.11568 13.7053 8.23272 13.4228 8.44104 13.2144C8.64936 13.0061 8.9319 12.8891 9.22652 12.8891H12.559V9.55659C12.559 9.26198 12.6761 8.97943 12.8844 8.77111C13.0927 8.56279 13.3752 8.44576 13.6698 8.44576C13.9645 8.44576 14.247 8.56279 14.4553 8.77111C14.6636 8.97943 14.7807 9.26198 14.7807 9.55659V12.8891H18.1132C18.4078 12.8891 18.6903 13.0061 18.8987 13.2144C19.107 13.4228 19.224 13.7053 19.224 13.9999C19.224 14.2945 19.107 14.5771 18.8987 14.7854C18.6903 14.9937 18.4078 15.1108 18.1132 15.1108Z" fill="white"/>
</svg>
