<svg width="41" height="41" viewBox="0 0 41 41" fill="none" xmlns="http://www.w3.org/2000/svg">
<rect x="0.5" y="0.169922" width="40" height="40" rx="20" fill="#250D77"/>
<path d="M15.6973 26.0899C16.724 25.1699 17.6373 24.3499 18.4373 23.6299C19.2507 22.8966 19.944 22.2233 20.5173 21.6099C21.0907 20.9966 21.524 20.4033 21.8173 19.8299C22.124 19.2566 22.2773 18.6633 22.2773 18.0499C22.2773 17.5966 22.184 17.1966 21.9973 16.8499C21.8107 16.4899 21.5373 16.2099 21.1773 16.0099C20.8173 15.7966 20.3573 15.6899 19.7973 15.6899C19.2507 15.6899 18.7107 15.7766 18.1773 15.9499C17.6573 16.1233 17.1707 16.3299 16.7173 16.5699L16.0173 14.7899C16.5373 14.4833 17.164 14.2099 17.8973 13.9699C18.644 13.7166 19.4373 13.5899 20.2773 13.5899C21.2507 13.5899 22.0773 13.7699 22.7573 14.1299C23.4373 14.4899 23.9573 14.9899 24.3173 15.6299C24.6773 16.2699 24.8573 16.9966 24.8573 17.8099C24.8573 18.6366 24.684 19.3966 24.3373 20.0899C24.004 20.7833 23.5373 21.4499 22.9373 22.0899C22.3507 22.7166 21.684 23.3499 20.9373 23.9899C20.1907 24.6166 19.4107 25.2766 18.5973 25.9699L18.1973 25.5899H25.1173L24.9973 27.6699H15.6973V26.0899Z" fill="white"/>
</svg>
