<svg width="34" height="34" viewBox="0 0 34 34" fill="none" xmlns="http://www.w3.org/2000/svg">
<g clip-path="url(#clip0_341_3571)">
<path d="M5.98605 25.3312H27.7251C28.3941 25.3312 29.0533 25.17 29.6469 24.8614C30.2405 24.5527 30.751 24.1056 31.1353 23.5579C31.5195 23.0102 31.7662 22.378 31.8544 21.7148C31.9426 21.0516 31.8698 20.3769 31.6421 19.7478L27.682 8.79918C27.0057 6.36604 25.551 4.22142 23.5404 2.6933C21.5298 1.16518 19.0741 0.337697 16.5487 0.337402C13.9198 0.337361 11.3695 1.23383 9.31884 2.87879C7.26819 4.52375 5.83982 6.81885 5.26956 9.38514L2.00649 19.9381C1.81437 20.5611 1.77118 21.2205 1.88039 21.8633C1.98961 22.5061 2.24817 23.1142 2.63529 23.6389C3.02241 24.1635 3.52726 24.5899 4.10924 24.8838C4.69122 25.1778 5.33406 25.331 5.98605 25.3312Z" fill="#4110EA"/>
<path d="M10.1956 28.1084C10.5142 29.6779 11.3657 31.0889 12.6057 32.1024C13.8457 33.1159 15.3979 33.6695 16.9994 33.6695C18.6009 33.6695 20.1531 33.1159 21.3931 32.1024C22.6331 31.0889 23.4846 29.6779 23.8033 28.1084H10.1956Z" fill="#4110EA"/>
</g>
<defs>
<clipPath id="clip0_341_3571">
<rect width="33.325" height="33.325" fill="white" transform="translate(0.337158 0.337402)"/>
</clipPath>
</defs>
</svg>
