<svg width="48" height="49" viewBox="0 0 48 49" fill="none" xmlns="http://www.w3.org/2000/svg">
<path d="M24.1942 37.8836L9.19993 44.1959C8.72667 44.3942 8.23175 44.4925 7.74183 44.4925C6.77198 44.4925 5.82047 44.1109 5.10225 43.3943C4.02242 42.3145 3.70747 40.7064 4.30071 39.2983L10.613 24.3024L24.1942 37.8836ZM31.0098 28.2851L20.2132 17.4885C19.1517 16.4253 17.6352 15.9654 16.1638 16.2537C14.6907 16.5436 13.4626 17.5402 12.8793 18.9266L12.0111 20.9896L27.512 36.4904L29.575 35.6223C30.9598 35.039 31.958 33.8109 32.2462 32.3378C32.5345 30.863 32.0729 29.3483 31.0114 28.2868L31.0098 28.2851ZM30.3232 17.1752C31.5397 15.5721 32.2129 13.8691 32.3262 12.1077C32.6128 7.61341 29.335 4.97216 29.1967 4.86052C28.4802 4.29727 27.4453 4.41559 26.8704 5.13047C26.2972 5.84369 26.4122 6.89019 27.1204 7.46843C27.2037 7.53675 29.1734 9.17649 29.0001 11.8944C28.9301 12.9892 28.4818 14.0874 27.6703 15.1589C27.1137 15.8921 27.257 16.9369 27.9903 17.4935C28.2919 17.7218 28.6451 17.8318 28.9968 17.8318C29.5 17.8318 29.9983 17.6035 30.3249 17.1719L30.3232 17.1752ZM43.2878 27.5286C44.041 26.9986 44.221 25.9588 43.6894 25.2056C43.0678 24.3241 41.3798 22.8326 38.9952 22.8326C37.702 22.8326 36.4872 23.2326 35.4824 23.9908C34.7475 24.544 34.6025 25.5905 35.1558 26.3237C35.7107 27.057 36.7538 27.2053 37.4904 26.6487C37.917 26.3271 38.4236 26.1638 38.9952 26.1638C40.21 26.1638 40.9282 27.077 40.9782 27.1419C41.3031 27.5919 41.8114 27.8302 42.3296 27.8302C42.6612 27.8302 42.9962 27.7302 43.2878 27.5252V27.5286ZM38.9952 7.00351C38.9952 8.38329 40.115 9.50311 41.4948 9.50311C42.8745 9.50311 43.9944 8.38329 43.9944 7.00351C43.9944 5.62373 42.8745 4.50391 41.4948 4.50391C40.115 4.50391 38.9952 5.62373 38.9952 7.00351ZM35.6624 15.3355C35.6624 16.7153 36.7822 17.8351 38.162 17.8351C39.5417 17.8351 40.6616 16.7153 40.6616 15.3355C40.6616 13.9557 39.5417 12.8359 38.162 12.8359C36.7822 12.8359 35.6624 13.9557 35.6624 15.3355ZM17.332 8.66824C17.332 10.048 18.4518 11.1678 19.8316 11.1678C21.2113 11.1678 22.3312 10.048 22.3312 8.66824C22.3312 7.28846 21.2113 6.16864 19.8316 6.16864C18.4518 6.16864 17.332 7.28846 17.332 8.66824ZM37.3288 35.3306C37.3288 36.7104 38.4486 37.8302 39.8284 37.8302C41.2081 37.8302 42.328 36.7104 42.328 35.3306C42.328 33.9509 41.2081 32.831 39.8284 32.831C38.4486 32.831 37.3288 33.9509 37.3288 35.3306ZM5.66716 10.3346C5.66716 11.7144 6.78698 12.8342 8.16676 12.8342C9.54654 12.8342 10.6664 11.7144 10.6664 10.3346C10.6664 8.95486 9.54654 7.83504 8.16676 7.83504C6.78698 7.83504 5.66716 8.95486 5.66716 10.3346ZM28.9968 41.9962C28.9968 43.376 30.1166 44.4958 31.4964 44.4958C32.8761 44.4958 33.996 43.376 33.996 41.9962C33.996 40.6165 32.8761 39.4966 31.4964 39.4966C30.1166 39.4966 28.9968 40.6165 28.9968 41.9962Z" fill="#D1D1D1"/>
</svg>
