<svg width="48" height="49" viewBox="0 0 48 49" fill="none" xmlns="http://www.w3.org/2000/svg">
<g clip-path="url(#clip0_344_15789)">
<path d="M19.0014 19.5016H6.76444L9.96197 11.0654C10.3247 10.1186 10.9654 9.30358 11.7999 8.72755C12.6343 8.15152 13.6235 7.84138 14.6375 7.83789H19.0014V19.5016ZM22.3339 19.5016H37.0385L30.3985 9.97902C29.9381 9.31817 29.3248 8.77836 28.6108 8.40556C27.8968 8.03276 27.1033 7.83801 26.2979 7.83789H22.3339V19.5016ZM43.9951 27.8329C43.9951 26.5071 43.4685 25.2357 42.531 24.2982C41.5936 23.3608 40.3221 22.8341 38.9964 22.8341H9.00388C7.67813 22.8341 6.40667 23.3608 5.46923 24.2982C4.53178 25.2357 4.00513 26.5071 4.00513 27.8329L4.00513 34.4979H43.9951V27.8329ZM17.2385 37.8304C18.2166 44.4187 8.12076 44.4154 9.10052 37.8304H17.2385ZM30.7618 37.8304C29.7837 44.4187 39.8795 44.4154 38.8997 37.8304H30.7618Z" fill="#D1D1D1"/>
</g>
<defs>
<clipPath id="clip0_344_15789">
<rect width="39.99" height="39.99" fill="white" transform="translate(4.00513 4.50488)"/>
</clipPath>
</defs>
</svg>
