<svg width="512" height="512" viewBox="0 0 512 512" fill="none" xmlns="http://www.w3.org/2000/svg">
<rect width="512" height="512" rx="24" fill="white"/>
<path d="M406.98 143.711C428.476 143.692 445.917 161.103 445.936 182.599L446.099 367.989C446.117 389.485 428.707 406.926 407.211 406.945L105.055 407.21L104.05 407.199C83.0179 406.684 66.1173 389.483 66.0988 368.323L65.936 182.932C65.9174 161.772 82.7878 144.541 103.819 143.99L104.824 143.976L406.98 143.711ZM104.841 163.437C94.0928 163.447 85.3875 172.167 85.397 182.915L85.5597 368.306C85.5691 379.054 94.2897 387.759 105.038 387.75L407.194 387.484C417.942 387.475 426.647 378.754 426.638 368.006L426.475 182.616C426.466 171.868 417.745 163.162 406.997 163.172L104.841 163.437Z" fill="#4110EA"/>
<path d="M319.494 104.873C332.777 105.198 343.452 116.062 343.463 129.427L343.487 156.057L324.026 156.075L324.002 129.444C324 126.615 321.705 124.325 318.877 124.327L193.917 124.437C191.089 124.439 188.798 126.734 188.8 129.562L188.824 156.193L169.363 156.21L169.339 129.579C169.328 116.003 180.324 104.988 193.9 104.976L318.86 104.866L319.494 104.873Z" fill="#4110EA"/>
<path d="M253.45 177.646C303.23 177.646 343.584 218.001 343.584 267.781C343.584 317.561 303.23 357.916 253.45 357.916C203.67 357.916 163.315 317.561 163.315 267.781C163.315 218.001 203.67 177.646 253.45 177.646ZM253.404 201.705C216.352 201.737 186.341 231.113 186.373 267.317L186.379 268.164C186.871 303.694 216.288 332.387 252.652 332.805L253.519 332.81C290.282 332.778 320.114 303.859 320.546 268.046L320.55 267.199C320.519 230.995 290.456 201.672 253.404 201.705ZM253.409 207.85C287.202 207.821 314.376 234.529 314.405 267.205C314.433 299.881 287.306 326.635 253.513 326.665C219.72 326.694 192.547 299.987 192.518 267.311C192.489 234.635 219.616 207.88 253.409 207.85ZM240.317 284.254C233.668 278.154 216.887 288.3 209.327 294.135C215.668 309.534 230.813 316.336 237.593 317.812C248.252 298.068 243.85 287.213 240.317 284.254ZM298.583 293.033C291.013 287.211 274.214 277.094 267.576 283.205C264.047 286.171 259.664 297.034 270.358 316.759C277.136 315.272 292.27 308.443 298.583 293.033ZM252.129 257.681C246.756 257.686 242.402 262.047 242.407 267.421C242.411 272.794 246.772 277.147 252.146 277.142C257.52 277.137 261.872 272.778 261.868 267.404C261.863 262.03 257.503 257.677 252.129 257.681ZM212.91 233.57C200.608 244.795 199.397 261.354 200.329 268.23C222.527 271.493 231.223 263.644 232.795 259.311C236.253 250.977 220.979 238.678 212.91 233.57ZM292.785 233.5C284.724 238.622 269.472 250.949 272.944 259.277C274.524 263.607 283.233 271.44 305.426 268.138C306.346 261.26 305.106 244.703 292.785 233.5ZM271.282 218.463C256.324 210.636 240.161 215.222 233.932 218.495L233.591 218.673L233.668 219.051C238.214 241.123 248.683 246.923 253.656 246.919L253.656 246.918C256.092 247.017 258.3 245.839 260.244 243.961C262.193 242.076 263.925 239.447 265.42 236.545C268.412 230.736 270.517 223.717 271.543 219.025L271.627 218.643L271.282 218.463Z" fill="#4110EA"/>
<circle cx="384.501" cy="206.21" r="17.4124" transform="rotate(-0.0502959 384.501 206.21)" fill="#4110EA"/>
</svg>
