<svg width="32" height="32" viewBox="0 0 32 32" fill="none" xmlns="http://www.w3.org/2000/svg">
<g clip-path="url(#clip0_311_14291)">
<path d="M15.9998 2.7168C13.0605 2.72003 10.2425 3.88903 8.16394 5.96735C6.08541 8.04567 4.91613 10.8636 4.9126 13.8029C4.9126 16.6578 7.12316 21.1255 11.4832 27.0818C12.0022 27.7929 12.6818 28.3714 13.4667 28.7702C14.2515 29.169 15.1195 29.3768 15.9998 29.3768C16.8802 29.3768 17.7481 29.169 18.533 28.7702C19.3178 28.3714 19.9974 27.7929 20.5165 27.0818C24.8765 21.1255 27.0871 16.6578 27.0871 13.8029C27.0835 10.8636 25.9142 8.04567 23.8357 5.96735C21.7572 3.88903 18.9392 2.72003 15.9998 2.7168ZM15.9998 18.2218C15.121 18.2218 14.2619 17.9612 13.5312 17.473C12.8005 16.9847 12.231 16.2908 11.8947 15.4789C11.5584 14.667 11.4704 13.7735 11.6419 12.9116C11.8133 12.0497 12.2365 11.258 12.8579 10.6366C13.4793 10.0152 14.2711 9.59197 15.133 9.42052C15.9949 9.24907 16.8883 9.33707 17.7002 9.67337C18.5121 10.0097 19.2061 10.5792 19.6943 11.3099C20.1826 12.0406 20.4432 12.8997 20.4432 13.7785C20.4432 14.9569 19.975 16.0871 19.1417 16.9204C18.3085 17.7537 17.1783 18.2218 15.9998 18.2218Z" fill="#4110EA"/>
</g>
<defs>
<clipPath id="clip0_311_14291">
<rect width="26.66" height="26.66" fill="white" transform="translate(2.66992 2.66992)"/>
</clipPath>
</defs>
</svg>
