<svg width="92" height="37" viewBox="0 0 92 37" fill="none" xmlns="http://www.w3.org/2000/svg">
<path d="M38.4702 6.51578C40.5765 6.62076 42.253 8.36115 42.255 10.4939L42.2716 29.4822L42.2669 29.6873C42.1655 31.7259 40.5322 33.3618 38.4939 33.4669L38.2888 33.472L7.34056 33.4992C5.13896 33.501 3.35267 31.718 3.35073 29.5163L3.33407 10.5281C3.33223 8.32653 5.11535 6.54028 7.31689 6.53825L38.2651 6.51108L38.4702 6.51578ZM7.31864 8.53141C6.21794 8.53247 5.32636 9.42562 5.32723 10.5263L5.3439 29.5146C5.34486 30.6154 6.23805 31.5069 7.33881 31.506L38.287 31.4788C39.3878 31.4778 40.2794 30.5847 40.2785 29.4839L40.2618 10.4957C40.2607 9.39496 39.3676 8.50339 38.2669 8.50424L7.31864 8.53141Z" fill="#250D77"/>
<path d="M29.2393 2.53245C30.6297 2.53123 31.7577 3.65738 31.759 5.04782L31.7614 7.77536L29.7683 7.77711L29.7659 5.04957C29.7655 4.75997 29.5306 4.52536 29.241 4.52562L16.4422 4.53685C16.1527 4.53722 15.9181 4.7722 15.9182 5.06173L15.9206 7.78926L13.9275 7.79101L13.9251 5.06348C13.924 3.67311 15.0501 2.54502 16.4404 2.54369L29.2393 2.53245Z" fill="#250D77"/>
<path d="M22.5396 9.98682C27.638 9.98682 31.7717 14.1198 31.772 19.2183C31.772 24.3169 27.6382 28.4507 22.5396 28.4507C17.4411 28.4504 13.3081 24.3167 13.3081 19.2183C13.3084 14.12 17.4413 9.98706 22.5396 9.98682ZM22.5347 12.4507C18.7399 12.4542 15.6663 15.4635 15.6694 19.1714C15.6728 22.7633 18.5623 25.6948 22.1929 25.8716L22.5464 25.8794C26.2228 25.8762 29.2229 23.0521 29.4038 19.5044L29.4126 19.1587C29.4091 15.4508 26.3295 12.4474 22.5347 12.4507ZM22.5356 13.0806C25.9966 13.0777 28.7796 15.8131 28.7827 19.1597C28.7856 22.5062 26.0073 25.2462 22.5464 25.2495C19.0854 25.2523 16.3023 22.5171 16.2993 19.1704C16.2965 15.8239 19.0747 13.0838 22.5356 13.0806ZM21.1948 20.9067C20.5139 20.282 18.7954 21.3207 18.021 21.9185C18.6705 23.4952 20.221 24.192 20.9155 24.3433C22.0068 22.3217 21.5567 21.2103 21.1948 20.9067ZM27.1626 21.8052C26.3872 21.2088 24.6666 20.1734 23.9868 20.7993C23.6255 21.1034 23.177 22.2161 24.272 24.2358C24.9663 24.0833 26.5159 23.3831 27.1626 21.8052ZM22.4048 18.1851C21.8544 18.1856 21.4083 18.6318 21.4087 19.1821C21.4093 19.7324 21.8565 20.1787 22.4067 20.1782C22.9569 20.1775 23.4022 19.7303 23.4019 19.1802C23.4012 18.63 22.955 18.1847 22.4048 18.1851ZM18.3872 15.7153C17.1277 16.8651 17.0037 18.561 17.0991 19.2651C19.3716 19.5992 20.2626 18.7959 20.4243 18.3521C20.7785 17.4985 19.2137 16.2386 18.3872 15.7153ZM26.5688 15.7075C25.7432 16.2323 24.181 17.4953 24.5366 18.3481C24.6988 18.7917 25.5913 19.5935 27.8638 19.2554C27.9579 18.5507 27.8306 16.8548 26.5688 15.7075ZM24.3657 14.1675C22.8338 13.3662 21.1785 13.8352 20.5405 14.1704L20.5054 14.189L20.5132 14.228C20.9782 16.4851 22.0489 17.0803 22.5591 17.0815L22.5591 17.0825L22.5601 17.0815L22.561 17.0825L22.561 17.0815C22.8105 17.0918 23.0368 16.9711 23.2358 16.7788C23.4353 16.586 23.6131 16.3169 23.7661 16.02C24.0724 15.4253 24.2879 14.7057 24.3931 14.2251L24.4019 14.186L24.3657 14.1675Z" fill="#4110EA"/>
<circle cx="35.9627" cy="12.9125" r="1.78344" transform="rotate(-0.0502959 35.9627 12.9125)" fill="#250D77"/>
<path d="M50.2663 22.8293C49.7666 22.8297 49.2716 22.7725 48.7815 22.6576C48.3009 22.5427 47.8395 22.375 47.3973 22.1543C46.9551 21.9241 46.5656 21.6218 46.229 21.2473C45.8923 20.8728 45.7094 20.4262 45.6801 19.9073L45.6796 19.3019L45.6794 19.0857C45.6791 18.8166 45.775 18.5955 45.9671 18.4224C46.1687 18.2397 46.404 18.1482 46.6731 18.1479C47.2497 18.1955 47.5623 18.5075 47.6108 19.084L47.6111 19.4588C47.6306 19.7566 47.7414 20.0064 47.9433 20.208C48.1549 20.4 48.3857 20.5535 48.6356 20.6686C48.8951 20.7837 49.1595 20.87 49.4286 20.9274C49.7073 20.9848 49.986 21.0134 50.2647 21.0131C50.5433 21.0129 50.8172 20.9838 51.0862 20.9259C51.3648 20.868 51.629 20.7813 51.8787 20.6658C52.138 20.5502 52.3685 20.3963 52.5702 20.2039C52.7814 20.0019 52.8965 19.752 52.9154 19.4541L52.9113 14.6975C52.911 14.4285 53.0069 14.2074 53.199 14.0343C53.4006 13.8515 53.6359 13.76 53.905 13.7598C54.4816 13.8073 54.799 14.1193 54.8571 14.6958L54.8612 19.2938L54.8617 19.8992C54.8333 20.4181 54.6463 20.8651 54.3007 21.2402C53.9647 21.6153 53.5758 21.9183 53.134 22.1493C52.6922 22.3707 52.2263 22.5393 51.7363 22.655C51.256 22.7707 50.7659 22.8288 50.2663 22.8293ZM58.1548 15.8028C58.4143 15.8122 58.6354 15.9081 58.8181 16.0905C59.0008 16.2633 59.0971 16.4794 59.107 16.7389L59.1113 21.726C59.0542 22.3027 58.7374 22.6152 58.1608 22.6638C57.8918 22.664 57.6563 22.5777 57.4543 22.405C57.262 22.2225 57.1657 21.9968 57.1655 21.7278L57.1611 16.7406C57.1705 16.4715 57.2712 16.2504 57.4632 16.0773C57.6552 15.8945 57.8858 15.803 58.1548 15.8028ZM56.9424 13.9301C56.9422 13.661 57.0573 13.4303 57.2877 13.2379C57.5182 13.0455 57.7968 12.9492 58.1235 12.9489C58.4502 12.9486 58.729 13.0445 58.9597 13.2364C59.1905 13.4284 59.3061 13.6589 59.3063 13.928C59.3065 14.2067 59.1914 14.4422 58.961 14.6346C58.7305 14.827 58.4519 14.9233 58.1252 14.9236C57.7985 14.9239 57.5198 14.828 57.289 14.636C57.0582 14.4441 56.9427 14.2087 56.9424 13.9301ZM69.3957 18.2433C69.3955 18.0031 69.2705 17.8782 69.0206 17.8689L63.9758 17.8733C63.7932 17.8831 63.6347 17.9649 63.5004 18.1187C63.366 18.263 63.2652 18.4361 63.1981 18.6379C63.1406 18.8301 63.112 19.0272 63.1122 19.2289C63.1123 19.4211 63.1413 19.6181 63.1992 19.8198C63.2666 20.012 63.3676 20.1848 63.5023 20.3385C63.637 20.4825 63.7956 20.5544 63.9781 20.5543L67.6681 20.551C67.9371 20.5508 68.163 20.6467 68.3458 20.8387C68.5381 21.0211 68.6344 21.2468 68.6347 21.5159C68.6349 21.785 68.539 22.0109 68.347 22.1936C68.1646 22.3859 67.9388 22.4822 67.6698 22.4825L64.0375 22.4857C63.3648 22.4766 62.8073 22.2897 62.365 21.925C61.9323 21.5506 61.6196 21.1329 61.427 20.6718C61.244 20.2011 61.1523 19.7159 61.1519 19.2163C61.1514 18.7358 61.2471 18.2649 61.4389 17.8034C61.6307 17.3324 61.9426 16.9142 62.3747 16.5486C62.8068 16.1735 63.4456 15.9711 64.2912 15.9416L70.345 15.9362C70.6141 15.936 70.8448 16.0271 71.0371 16.2095C71.2294 16.3823 71.3305 16.6032 71.3404 16.8723L71.3444 21.427C71.3451 22.1958 71.24 22.9214 71.0292 23.6038C70.8375 24.2093 70.5209 24.7189 70.0792 25.1325C69.6472 25.5557 69.0948 25.7868 68.4222 25.8258L63.4351 25.8302C63.1756 25.8208 62.9545 25.7249 62.7718 25.5425C62.5986 25.3697 62.5072 25.1536 62.4973 24.8941C62.4971 24.6251 62.5834 24.3944 62.7562 24.202C62.9386 24.0097 63.1643 23.9086 63.4334 23.8987L67.9305 23.8948C68.2956 23.8753 68.5982 23.7357 68.8382 23.476C69.0782 23.2163 69.2317 22.9135 69.2986 22.5675C69.3656 22.2215 69.3988 21.7747 69.3983 21.2269L69.3957 18.2433ZM74.7226 15.7883C74.9821 15.7976 75.2032 15.8935 75.3859 16.076C75.5687 16.2488 75.6649 16.4649 75.6748 16.7243L75.6792 21.7115C75.622 22.2881 75.3052 22.6007 74.7287 22.6492C74.4596 22.6495 74.2241 22.5632 74.0222 22.3904C73.8298 22.208 73.7335 21.9823 73.7333 21.7132L73.7289 16.726C73.7383 16.457 73.839 16.2359 74.031 16.0627C74.223 15.88 74.4536 15.7885 74.7226 15.7883ZM73.5102 13.9155C73.51 13.6465 73.6251 13.4157 73.8556 13.2234C74.086 13.031 74.3646 12.9346 74.6913 12.9344C75.018 12.9341 75.2968 13.0299 75.5276 13.2219C75.7584 13.4139 75.8739 13.6444 75.8741 13.9135C75.8743 14.1921 75.7592 14.4276 75.5288 14.62C75.2983 14.8124 75.0198 14.9088 74.693 14.909C74.3663 14.9093 74.0876 14.8135 73.8568 14.6215C73.626 14.4295 73.5105 14.1942 73.5102 13.9155ZM81.0012 13.736C81.2703 13.7358 81.501 13.8268 81.6933 14.0092C81.8857 14.182 81.9868 14.403 81.9966 14.672L81.9977 15.926L86.8984 15.9217C87.1675 15.9215 87.3982 16.0126 87.5905 16.195C87.7733 16.387 87.8647 16.6175 87.865 16.8866C87.8652 17.1556 87.7693 17.3864 87.5773 17.5787C87.3949 17.7614 87.1692 17.8529 86.9001 17.8532L81.9994 17.8575L81.9997 18.1457C81.9904 18.5397 82.0147 18.9049 82.0727 19.2411C82.1402 19.5678 82.2942 19.8607 82.5347 20.12C82.7752 20.3792 83.078 20.5183 83.4431 20.5372L86.9601 20.5341C87.2292 20.5435 87.4503 20.6442 87.6234 20.8362C87.8062 21.0282 87.8976 21.2588 87.8979 21.5278C87.8885 21.7873 87.7926 22.0084 87.6102 22.1911C87.4374 22.3642 87.2212 22.4557 86.9618 22.4655L82.9548 22.4691C82.2821 22.4312 81.7246 22.2059 81.2822 21.7931C80.8494 21.3706 80.5366 20.8568 80.3439 20.2516C80.1608 19.6464 80.0642 19.0027 80.0539 18.3204L80.0535 17.8592L78.396 17.8606C78.1269 17.8609 77.901 17.765 77.7183 17.5729C77.5259 17.3905 77.4296 17.1648 77.4294 16.8958C77.4291 16.6267 77.5202 16.4008 77.7026 16.2181C77.8947 16.0257 78.1252 15.9294 78.3943 15.9292L80.0518 15.9277L80.0507 14.6737C80.0601 14.4143 80.156 14.198 80.3385 14.0248C80.5209 13.8421 80.7418 13.7458 81.0012 13.736Z" fill="#4110EA"/>
</svg>
