<svg width="40" height="41" viewBox="0 0 40 41" fill="none" xmlns="http://www.w3.org/2000/svg">
<rect x="0.75" y="1.26221" width="38.5" height="38.5" rx="19.25" stroke="#250D77" stroke-width="1.5"/>
<path d="M15.1973 26.4322C16.224 25.5122 17.1373 24.6922 17.9373 23.9722C18.7507 23.2389 19.444 22.5655 20.0173 21.9522C20.5907 21.3389 21.024 20.7455 21.3173 20.1722C21.624 19.5989 21.7773 19.0055 21.7773 18.3922C21.7773 17.9389 21.684 17.5389 21.4973 17.1922C21.3107 16.8322 21.0373 16.5522 20.6773 16.3522C20.3173 16.1389 19.8573 16.0322 19.2973 16.0322C18.7507 16.0322 18.2107 16.1189 17.6773 16.2922C17.1573 16.4655 16.6707 16.6722 16.2173 16.9122L15.5173 15.1322C16.0373 14.8255 16.664 14.5522 17.3973 14.3122C18.144 14.0589 18.9373 13.9322 19.7773 13.9322C20.7507 13.9322 21.5773 14.1122 22.2573 14.4722C22.9373 14.8322 23.4573 15.3322 23.8173 15.9722C24.1773 16.6122 24.3573 17.3389 24.3573 18.1522C24.3573 18.9789 24.184 19.7389 23.8373 20.4322C23.504 21.1255 23.0373 21.7922 22.4373 22.4322C21.8507 23.0589 21.184 23.6922 20.4373 24.3322C19.6907 24.9589 18.9107 25.6189 18.0973 26.3122L17.6973 25.9322H24.6173L24.4973 28.0122H15.1973V26.4322Z" fill="#250D77"/>
</svg>
