<svg width="28" height="25" viewBox="0 0 28 25" fill="none" xmlns="http://www.w3.org/2000/svg">
<path d="M10.3676 8.66743H2.20966L4.34135 3.04329C4.58318 2.41205 5.01031 1.86873 5.56661 1.48471C6.12291 1.10069 6.78237 0.89393 7.45834 0.891602H10.3676V8.66743ZM12.5893 8.66743H22.3924L17.9657 2.31902C17.6588 1.87845 17.2499 1.51858 16.7739 1.27005C16.2979 1.02152 15.7689 0.891684 15.232 0.891602H12.5893V8.66743ZM27.0301 14.2216C27.0301 13.3378 26.679 12.4901 26.0541 11.8652C25.4291 11.2402 24.5814 10.8891 23.6976 10.8891H3.70262C2.81878 10.8891 1.97115 11.2402 1.34618 11.8652C0.721219 12.4901 0.370117 13.3378 0.370117 14.2216L0.370117 18.6649H27.0301V14.2216ZM9.19236 20.8866C9.84441 25.2788 3.11388 25.2766 3.76705 20.8866H9.19236ZM18.2079 20.8866C17.5558 25.2788 24.2864 25.2766 23.6332 20.8866H18.2079Z" fill="#4110EA"/>
</svg>
