<svg width="32" height="33" viewBox="0 0 32 33" fill="none" xmlns="http://www.w3.org/2000/svg">
<g clip-path="url(#clip0_344_15572)">
<path d="M12.6674 13.1674H4.50946L6.64115 7.54329C6.88298 6.91205 7.31011 6.36873 7.86641 5.98471C8.42272 5.60069 9.08218 5.39393 9.75815 5.3916H12.6674V13.1674ZM14.8891 13.1674H24.6922L20.2655 6.81902C19.9586 6.37845 19.5497 6.01858 19.0737 5.77005C18.5977 5.52152 18.0687 5.39168 17.5318 5.3916H14.8891V13.1674ZM29.3299 18.7216C29.3299 17.8378 28.9788 16.9901 28.3539 16.3652C27.7289 15.7402 26.8813 15.3891 25.9974 15.3891H6.00242C5.11859 15.3891 4.27095 15.7402 3.64599 16.3652C3.02102 16.9901 2.66992 17.8378 2.66992 18.7216L2.66992 23.1649H29.3299V18.7216ZM11.4922 25.3866C12.1442 29.7788 5.41368 29.7766 6.06685 25.3866H11.4922ZM20.5077 25.3866C19.8556 29.7788 26.5862 29.7766 25.933 25.3866H20.5077Z" fill="#4110EA"/>
</g>
<defs>
<clipPath id="clip0_344_15572">
<rect width="26.66" height="26.66" fill="white" transform="translate(2.66992 3.16992)"/>
</clipPath>
</defs>
</svg>
