<svg width="20" height="21" viewBox="0 0 20 21" fill="none" xmlns="http://www.w3.org/2000/svg">
<path d="M9.99995 0.83252C8.02263 0.83252 6.08971 1.41886 4.44563 2.5174C2.80155 3.61594 1.52015 5.17734 0.76346 7.00414C0.00677318 8.83095 -0.191211 10.8411 0.194545 12.7804C0.580301 14.7198 1.53247 16.5011 2.93065 17.8993C4.32882 19.2975 6.11021 20.2497 8.04953 20.6354C9.98886 21.0212 11.999 20.8232 13.8258 20.0665C15.6526 19.3098 17.214 18.0284 18.3126 16.3843C19.4111 14.7403 19.9974 12.8073 19.9974 10.83C19.9946 8.1794 18.9404 5.63816 17.0661 3.76389C15.1918 1.88961 12.6506 0.835386 9.99995 0.83252ZM13.3324 11.6631H10.8331V14.1625C10.8331 14.3835 10.7453 14.5954 10.5891 14.7516C10.4328 14.9079 10.2209 14.9956 9.99995 14.9956C9.77899 14.9956 9.56708 14.9079 9.41084 14.7516C9.2546 14.5954 9.16682 14.3835 9.16682 14.1625V11.6631H6.66745C6.44649 11.6631 6.23458 11.5754 6.07834 11.4191C5.9221 11.2629 5.83432 11.051 5.83432 10.83C5.83432 10.6091 5.9221 10.3972 6.07834 10.2409C6.23458 10.0847 6.44649 9.99689 6.66745 9.99689H9.16682V7.49752C9.16682 7.27656 9.2546 7.06465 9.41084 6.90841C9.56708 6.75217 9.77899 6.66439 9.99995 6.66439C10.2209 6.66439 10.4328 6.75217 10.5891 6.90841C10.7453 7.06465 10.8331 7.27656 10.8331 7.49752V9.99689H13.3324C13.5534 9.99689 13.7653 10.0847 13.9216 10.2409C14.0778 10.3972 14.1656 10.6091 14.1656 10.83C14.1656 11.051 14.0778 11.2629 13.9216 11.4191C13.7653 11.5754 13.5534 11.6631 13.3324 11.6631Z" fill="#4110EA"/>
</svg>
