<svg width="27" height="28" viewBox="0 0 27 28" fill="none" xmlns="http://www.w3.org/2000/svg">
<path d="M13.4999 0.669922C10.8635 0.669922 8.28628 1.45171 6.09418 2.91643C3.90207 4.38115 2.19353 6.46301 1.18461 8.89875C0.175698 11.3345 -0.0882809 14.0147 0.42606 16.6005C0.940401 19.1862 2.20996 21.5614 4.07419 23.4257C5.93843 25.2899 8.31361 26.5595 10.8994 27.0738C13.4851 27.5881 16.1654 27.3242 18.6011 26.3152C21.0368 25.3063 23.1187 23.5978 24.5834 21.4057C26.0481 19.2136 26.8299 16.6363 26.8299 13.9999C26.8261 10.4658 25.4205 7.07744 22.9214 4.57841C20.4224 2.07938 17.0341 0.673744 13.4999 0.669922ZM17.9433 15.1108H14.6108V18.4433C14.6108 18.7379 14.4937 19.0204 14.2854 19.2287C14.0771 19.4371 13.7945 19.5541 13.4999 19.5541C13.2053 19.5541 12.9228 19.4371 12.7144 19.2287C12.5061 19.0204 12.3891 18.7379 12.3891 18.4433V15.1108H9.05659C8.76198 15.1108 8.47944 14.9937 8.27112 14.7854C8.06279 14.5771 7.94576 14.2945 7.94576 13.9999C7.94576 13.7053 8.06279 13.4228 8.27112 13.2144C8.47944 13.0061 8.76198 12.8891 9.05659 12.8891H12.3891V9.55659C12.3891 9.26198 12.5061 8.97943 12.7144 8.77111C12.9228 8.56279 13.2053 8.44576 13.4999 8.44576C13.7945 8.44576 14.0771 8.56279 14.2854 8.77111C14.4937 8.97943 14.6108 9.26198 14.6108 9.55659V12.8891H17.9433C18.2379 12.8891 18.5204 13.0061 18.7287 13.2144C18.9371 13.4228 19.0541 13.7053 19.0541 13.9999C19.0541 14.2945 18.9371 14.5771 18.7287 14.7854C18.5204 14.9937 18.2379 15.1108 17.9433 15.1108Z" fill="#4110EA"/>
</svg>
