<svg width="32" height="32" viewBox="0 0 32 32" fill="none" xmlns="http://www.w3.org/2000/svg">
<g clip-path="url(#clip0_326_2014)">
<path d="M29.3298 27.7591L22.3738 20.8031C24.1807 18.5932 25.0691 15.7733 24.8552 12.9268C24.6413 10.0802 23.3416 7.42479 21.2247 5.5097C19.1079 3.59461 16.336 2.56641 13.4823 2.63776C10.6286 2.70911 7.91153 3.87456 5.89304 5.89304C3.87456 7.91153 2.70911 10.6286 2.63776 13.4823C2.56641 16.336 3.59461 19.1079 5.5097 21.2247C7.42479 23.3416 10.0802 24.6413 12.9268 24.8552C15.7733 25.0691 18.5932 24.1807 20.8031 22.3738L27.7591 29.3298L29.3298 27.7591ZM13.7782 22.6648C12.0205 22.6648 10.3024 22.1436 8.841 21.1672C7.37959 20.1907 6.24057 18.8028 5.56796 17.1789C4.89535 15.5551 4.71936 13.7683 5.06225 12.0445C5.40515 10.3206 6.25152 8.73717 7.49434 7.49434C8.73717 6.25152 10.3206 5.40515 12.0445 5.06225C13.7683 4.71936 15.5551 4.89535 17.1789 5.56796C18.8028 6.24057 20.1907 7.37959 21.1672 8.841C22.1436 10.3024 22.6648 12.0205 22.6648 13.7782C22.6622 16.1342 21.7251 18.3931 20.0591 20.0591C18.3931 21.7251 16.1342 22.6622 13.7782 22.6648Z" fill="#4110EA"/>
</g>
<defs>
<clipPath id="clip0_326_2014">
<rect width="26.66" height="26.66" fill="white" transform="translate(2.66992 2.66992)"/>
</clipPath>
</defs>
</svg>
