<svg width="28" height="24" viewBox="0 0 28 24" fill="none" xmlns="http://www.w3.org/2000/svg">
<path d="M10.4975 8.16743H2.33954L4.47123 2.54329C4.71306 1.91205 5.14019 1.36873 5.69649 0.984707C6.2528 0.600687 6.91225 0.39393 7.58823 0.391602H10.4975V8.16743ZM12.7192 8.16743H22.5223L18.0956 1.81902C17.7886 1.37845 17.3798 1.01858 16.9038 0.77005C16.4278 0.521518 15.8988 0.391684 15.3618 0.391602H12.7192V8.16743ZM27.16 13.7216C27.16 12.8378 26.8089 11.9901 26.1839 11.3652C25.559 10.7402 24.7113 10.3891 23.8275 10.3891H3.8325C2.94867 10.3891 2.10103 10.7402 1.47607 11.3652C0.851102 11.9901 0.5 12.8378 0.5 13.7216L0.5 18.1649H27.16V13.7216ZM9.32224 20.3866C9.9743 24.7788 3.24376 24.7766 3.89693 20.3866H9.32224ZM18.3378 20.3866C17.6857 24.7788 24.4162 24.7766 23.7631 20.3866H18.3378Z" fill="white"/>
</svg>
