<svg width="30" height="31" viewBox="0 0 30 31" fill="none" xmlns="http://www.w3.org/2000/svg">
<g clip-path="url(#clip0_393_2914)">
<path d="M4.07341 15.3161C3.06952 14.8495 2.45753 13.8332 2.51576 12.7268C2.57467 11.6239 3.2844 10.6788 4.3278 10.318L22.6992 3.63842C23.6851 3.2811 24.7396 3.37451 25.6195 3.86534L11.8048 17.6801L4.2008 15.3646C4.15787 15.3507 4.11495 15.3341 4.07341 15.3161ZM13.1998 19.0557L15.5686 26.6216C15.5818 26.6639 15.597 26.704 15.6157 26.7435C16.0837 27.7474 17.1007 28.3559 18.2064 28.297C18.8904 28.2595 19.5129 27.9708 19.9713 27.5124C20.2545 27.2292 20.4746 26.8817 20.6097 26.4877L27.2387 8.17516C27.5967 7.18576 27.5005 6.12992 27.0069 5.24997L13.2005 19.0564L13.1998 19.0557Z" fill="#4110EA"/>
</g>
<defs>
<clipPath id="clip0_393_2914">
<rect width="24.9937" height="24.9937" fill="white" transform="translate(2.50293 3.36523)"/>
</clipPath>
</defs>
</svg>
