<svg width="48" height="48" viewBox="0 0 48 48" fill="none" xmlns="http://www.w3.org/2000/svg">
<g clip-path="url(#clip0_311_14306)">
<path d="M28.9986 32.3311C28.9986 31.413 29.7451 30.6649 30.6649 30.6649C31.5847 30.6649 32.3311 31.413 32.3311 32.3311C32.3311 33.2492 31.5847 33.9974 30.6649 33.9974C29.7451 33.9974 28.9986 33.2492 28.9986 32.3311ZM15.6686 22.3336C14.7489 22.3336 14.0024 23.0818 14.0024 23.9999C14.0024 24.918 14.7489 25.6661 15.6686 25.6661C16.5884 25.6661 17.3349 24.918 17.3349 23.9999C17.3349 23.0818 16.5884 22.3336 15.6686 22.3336ZM30.6649 17.3349C31.5847 17.3349 32.3311 16.5867 32.3311 15.6686C32.3311 14.7505 31.5847 14.0024 30.6649 14.0024C29.7451 14.0024 28.9986 14.7505 28.9986 15.6686C28.9986 16.5867 29.7451 17.3349 30.6649 17.3349ZM43.9949 12.3361V35.6636C43.9949 40.2575 40.2575 43.9949 35.6636 43.9949H12.3361C7.74228 43.9949 4.00488 40.2575 4.00488 35.6636V12.3361C4.00488 7.74228 7.74228 4.00488 12.3361 4.00488H35.6636C40.2575 4.00488 43.9949 7.74228 43.9949 12.3361ZM20.5974 23.1668L27.3574 19.411C28.2388 20.1908 29.3969 20.6657 30.6649 20.6657C33.4209 20.6657 35.6636 18.4229 35.6636 15.667C35.6636 12.911 33.4209 10.6682 30.6649 10.6682C27.9089 10.6682 25.6661 12.911 25.6661 15.667C25.6661 15.9502 25.6911 16.2285 25.7361 16.5001L18.9761 20.2558C18.0947 19.476 16.9366 19.0011 15.6686 19.0011C12.9127 19.0011 10.6699 21.2439 10.6699 23.9999C10.6699 26.7559 12.9127 28.9986 15.6686 28.9986C16.9366 28.9986 18.0947 28.5237 18.9761 27.7439L25.7361 31.4997C25.6911 31.7713 25.6661 32.0479 25.6661 32.3328C25.6661 35.0888 27.9089 37.3315 30.6649 37.3315C33.4209 37.3315 35.6636 35.0888 35.6636 32.3328C35.6636 29.5768 33.4209 27.334 30.6649 27.334C29.3969 27.334 28.2388 27.8089 27.3574 28.5887L20.5974 24.833C20.6424 24.5614 20.6674 24.2848 20.6674 23.9999C20.6674 23.715 20.6424 23.4384 20.5974 23.1668Z" fill="#250D77"/>
</g>
<defs>
<clipPath id="clip0_311_14306">
<rect width="39.99" height="39.99" fill="white" transform="translate(4.00488 4.00488)"/>
</clipPath>
</defs>
</svg>
