<svg width="92" height="38" viewBox="0 0 92 38" fill="none" xmlns="http://www.w3.org/2000/svg">
<ellipse cx="7.13328" cy="6.56614" rx="7.13328" ry="6.56614" transform="matrix(1 -0.000821731 0.000937756 1 38.5645 13.7197)" fill="#D1D1D1"/>
<path d="M40.6754 23.2387C41.4114 24.9119 43.1694 25.6509 43.9564 25.8113C45.1937 23.666 44.6827 22.4866 44.2726 22.165C43.5009 21.5022 41.5529 22.6046 40.6754 23.2387Z" fill="white"/>
<path d="M51.0357 23.1196C50.3028 24.794 48.5461 25.5359 47.7594 25.6976C46.5182 23.5543 47.027 22.374 47.4365 22.0518C48.2069 21.3877 50.157 22.487 51.0357 23.1196Z" fill="white"/>
<path d="M63.8127 6.79926C66.1484 6.79734 68.044 8.68965 68.0462 11.0253L68.0651 31.1688L68.0594 31.3856C67.9484 33.6204 66.1023 35.399 63.8396 35.4008L28.1911 35.4301L27.9733 35.4244C25.8106 35.3167 24.0752 33.5845 23.9637 31.4219L23.9577 31.2051L23.9388 11.0615C23.9367 8.79878 25.712 6.94955 27.9465 6.83459L28.1643 6.82856L63.8127 6.79926ZM28.1663 8.94281C26.9985 8.94377 26.0519 9.89197 26.053 11.0598L26.0719 31.2033C26.0733 32.3709 27.0215 33.3168 28.1891 33.3158L63.8376 33.2866C65.0052 33.2856 65.9517 32.3382 65.9508 31.1706L65.9319 11.027C65.9308 9.8592 64.9825 8.91256 63.8147 8.91352L28.1663 8.94281Z" fill="#D1D1D1"/>
<path d="M53.752 2.59181C55.0987 2.72766 56.1506 3.86429 56.1519 5.24706L56.1546 8.14062L54.0404 8.14235L54.0377 5.2488C54.0373 4.94153 53.7878 4.6924 53.4805 4.69262L38.6114 4.70484C38.3041 4.70513 38.055 4.95467 38.0552 5.26193L38.058 8.15549L35.9437 8.15722L35.941 5.26367C35.9396 3.78859 37.1343 2.59183 38.6094 2.59058L53.4785 2.57836L53.752 2.59181Z" fill="#D1D1D1"/>
<mask id="path-6-inside-1_344_15797" fill="white">
<path d="M45.6946 10.4865C51.4727 10.4818 56.1606 14.863 56.1657 20.2719C56.1705 25.6805 51.4909 30.0687 45.7129 30.0734C39.9351 30.0781 35.2471 25.6976 35.2419 20.2891C35.2368 14.8803 39.9166 10.4914 45.6946 10.4865Z"/>
</mask>
<path d="M45.6946 10.4865L45.692 7.70426L45.6919 7.70426L45.6946 10.4865ZM56.1657 20.2719L58.9479 20.2697L58.9479 20.2696L56.1657 20.2719ZM45.7129 30.0734L45.7155 32.8557L45.7156 32.8557L45.7129 30.0734ZM35.2419 20.2891L32.4596 20.2913L32.4596 20.2915L35.2419 20.2891ZM45.6946 10.4865L45.6972 13.2688C50.1144 13.2652 53.3799 16.5719 53.3834 20.2742L56.1657 20.2719L58.9479 20.2696C58.9413 13.1541 52.8309 7.69839 45.692 7.70426L45.6946 10.4865ZM56.1657 20.2719L53.3834 20.274C53.3867 23.9759 50.1276 27.2875 45.7103 27.2912L45.7129 30.0734L45.7156 32.8557C52.8541 32.8498 58.9543 27.3851 58.9479 20.2697L56.1657 20.2719ZM45.7129 30.0734L45.7104 27.2912C41.2931 27.2947 38.0277 23.9884 38.0241 20.2867L35.2419 20.2891L32.4596 20.2915C32.4666 27.4068 38.5771 32.8614 45.7155 32.8557L45.7129 30.0734ZM35.2419 20.2891L38.0241 20.2868C38.0206 16.5847 41.2801 13.2725 45.6972 13.2688L45.6946 10.4865L45.6919 7.70426C38.5531 7.71027 32.4529 13.1759 32.4596 20.2913L35.2419 20.2891Z" fill="#D1D1D1" mask="url(#path-6-inside-1_344_15797)"/>
<path d="M45.638 13.4916C49.783 13.4882 53.094 16.5527 53.0975 20.2746C53.1007 23.9963 49.7956 27.0654 45.6507 27.0688C41.5059 27.0722 38.195 24.0085 38.1912 20.2868C38.1878 16.565 41.493 13.4951 45.638 13.4916Z" stroke="white" stroke-width="0.667743"/>
<path d="M47.839 15.0659C46.1262 14.227 44.272 14.7187 43.559 15.0694C44.0844 17.4573 45.2857 18.0533 45.8207 18.0529C46.867 18.0963 47.6022 16.0797 47.839 15.0659Z" fill="white" stroke="white" stroke-width="0.11129"/>
<path d="M41.0913 16.6589C39.6633 17.8786 39.5227 19.6778 39.6309 20.4249C42.2076 20.7795 43.2169 19.9266 43.3994 19.4559C43.8008 18.5504 42.0279 17.2139 41.0913 16.6589Z" fill="white"/>
<path d="M50.3624 16.6513C51.7926 17.8687 51.9366 19.6676 51.8298 20.4149C49.2538 20.7737 48.243 19.9225 48.0595 19.4521C47.6565 18.5472 49.4269 17.2079 50.3624 16.6513Z" fill="white"/>
<ellipse cx="1.12944" cy="1.05726" rx="1.12944" ry="1.05726" transform="matrix(1 -0.000821731 0.000937756 1 44.5142 19.2793)" fill="white"/>
<ellipse cx="2.0211" cy="1.89194" rx="2.0211" ry="1.89194" transform="matrix(1 -0.000821731 0.000937756 1 58.8926 11.6992)" fill="#D1D1D1"/>
</svg>
