<svg width="20" height="20" viewBox="0 0 20 20" fill="none" xmlns="http://www.w3.org/2000/svg">
<g clip-path="url(#clip0_46_167)">
<path d="M12.356 15.8912C12.8359 16.3711 12.5776 17.19 11.9111 17.3133C11.9044 17.3142 11.8978 17.3158 11.8911 17.3167C11.6228 17.3658 11.3446 17.2725 11.1513 17.0792L1.84861 7.77737C1.54785 7.47661 1.51786 7.0009 1.77946 6.66598C1.78279 6.66182 1.78613 6.65682 1.79029 6.65265C2.09938 6.25775 2.69007 6.22443 3.04415 6.57934L12.356 15.8912ZM0.442296 8.72797C0.323159 8.95458 0.22485 9.15619 0.150702 9.31782C-0.0467488 9.75188 -0.0467488 10.2493 0.150702 10.6841C0.18486 10.76 0.229016 10.8499 0.273171 10.9407L5.20111 15.8687C5.85261 16.5202 6.66574 16.9901 7.56135 17.2042C7.633 17.2217 7.70548 17.2375 7.77879 17.2533C8.22618 17.35 8.53027 16.8168 8.20702 16.4935L0.442296 8.72797ZM19.7533 18.5755C20.0791 18.9013 20.0791 19.4278 19.7533 19.7535C19.5908 19.916 19.3776 19.9977 19.1643 19.9977C18.951 19.9977 18.7377 19.916 18.5753 19.7535L0.246511 1.42479C-0.0792407 1.09904 -0.0792407 0.572507 0.246511 0.246755C0.572263 -0.0789966 1.0988 -0.0789966 1.42455 0.246755L4.98033 3.80253C6.51161 2.93942 8.19786 2.50203 9.99991 2.50203C15.1586 2.50203 18.0979 6.03281 19.3901 8.13728C20.2049 9.46362 20.2049 11.1115 19.3901 12.4379C18.8635 13.2952 17.9921 14.4982 16.7424 15.5646L19.7533 18.5755ZM7.10563 5.92784L8.30866 7.13087C8.8052 6.83677 9.38339 6.66848 10.0007 6.66848C11.8386 6.66848 13.3332 8.16311 13.3332 10.001C13.3332 10.6183 13.1641 11.1965 12.8709 11.6931L14.0731 12.8953C14.6554 12.078 14.9995 11.079 14.9995 10.001C14.9995 7.24417 12.7575 5.00223 10.0007 5.00223C8.92268 5.00223 7.92376 5.34548 7.10646 5.92867L7.10563 5.92784Z" fill="#666666"/>
</g>
<defs>
<clipPath id="clip0_46_167">
<rect width="19.995" height="19.995" fill="white" transform="translate(0.00244141 0.00244141)"/>
</clipPath>
</defs>
</svg>
