<svg width="24" height="24" viewBox="0 0 24 24" fill="none" xmlns="http://www.w3.org/2000/svg">
<g clip-path="url(#clip0_419_4312)">
<path d="M3.25863 11.5619C2.45552 11.1886 1.96593 10.3755 2.01251 9.49043C2.05964 8.60809 2.62742 7.852 3.46214 7.56338L18.1593 2.21972C18.948 1.93387 19.7916 2.00859 20.4955 2.40126L9.44375 13.453L3.36054 11.6007C3.3262 11.5896 3.29186 11.5763 3.25863 11.5619ZM10.5598 14.5535L12.4548 20.6063C12.4653 20.6401 12.4775 20.6722 12.4925 20.7038C12.8668 21.5069 13.6805 21.9937 14.565 21.9466C15.1123 21.9166 15.6102 21.6856 15.9769 21.3189C16.2035 21.0924 16.3796 20.8143 16.4876 20.4991L21.7909 5.84911C22.0773 5.05759 22.0003 4.21292 21.6055 3.50896L10.5603 14.5541L10.5598 14.5535Z" fill="white"/>
</g>
<defs>
<clipPath id="clip0_419_4312">
<rect width="19.995" height="19.995" fill="white" transform="translate(2.00244 2.00195)"/>
</clipPath>
</defs>
</svg>
