<svg width="25" height="25" viewBox="0 0 25 25" fill="none" xmlns="http://www.w3.org/2000/svg">
<g clip-path="url(#clip0_87_2910)">
<path d="M14.1835 12.3332L22.0479 4.46963C22.5361 3.98145 22.5361 3.18997 22.0479 2.70183C21.5597 2.21365 20.7682 2.21365 20.2801 2.70183L12.4165 10.5662L4.55301 2.70183C4.06483 2.21365 3.27334 2.21365 2.7852 2.70183C2.29706 3.19001 2.29702 3.98149 2.7852 4.46963L10.6496 12.3332L2.7852 20.1967C2.29702 20.6849 2.29702 21.4764 2.7852 21.9645C3.27338 22.4527 4.06487 22.4527 4.55301 21.9645L12.4165 14.1002L20.2801 21.9645C20.7682 22.4527 21.5597 22.4527 22.0479 21.9645C22.5361 21.4764 22.5361 20.6849 22.0479 20.1967L14.1835 12.3332Z" fill="white"/>
</g>
<defs>
<clipPath id="clip0_87_2910">
<rect width="19.995" height="19.995" fill="white" transform="translate(2.41907 2.33569)"/>
</clipPath>
</defs>
</svg>
