<svg width="14" height="28" viewBox="0 0 14 28" fill="none" xmlns="http://www.w3.org/2000/svg">
<path d="M0.422833 25.6582C0.423222 25.2164 0.599026 24.7929 0.911598 24.4807L9.43391 15.9584C9.69187 15.7005 9.89649 15.3943 10.0361 15.0574C10.1757 14.7204 10.2476 14.3592 10.2476 13.9944C10.2476 13.6297 10.1757 13.2685 10.0361 12.9315C9.89649 12.5945 9.69187 12.2884 9.43391 12.0305L0.922705 3.51928C0.619184 3.20502 0.451235 2.78413 0.455031 2.34724C0.458828 1.91035 0.634066 1.49244 0.943002 1.1835C1.25194 0.874565 1.66986 0.699327 2.10674 0.695531C2.54363 0.691734 2.96452 0.859683 3.27878 1.1632L11.79 9.66774C12.9344 10.8144 13.5771 12.3683 13.5771 13.9883C13.5771 15.6084 12.9344 17.1622 11.79 18.3089L3.26768 26.8368C3.03464 27.07 2.73768 27.2288 2.41436 27.2931C2.09104 27.3575 1.75589 27.3245 1.45133 27.1983C1.14677 27.0721 0.886486 26.8585 0.703406 26.5843C0.520326 26.3102 0.422683 25.9879 0.422833 25.6582Z" fill="white"/>
</svg>
