<svg width="14" height="28" viewBox="0 0 14 28" fill="none" xmlns="http://www.w3.org/2000/svg">
<path d="M13.5772 2.34181C13.5768 2.78358 13.401 3.20711 13.0884 3.51929L4.56609 12.0416C4.30813 12.2995 4.10351 12.6057 3.9639 12.9426C3.82429 13.2796 3.75244 13.6408 3.75244 14.0056C3.75244 14.3703 3.82429 14.7315 3.9639 15.0685C4.10351 15.4055 4.30813 15.7116 4.56609 15.9695L13.0773 24.4807C13.3808 24.795 13.5488 25.2159 13.545 25.6528C13.5412 26.0896 13.3659 26.5076 13.057 26.8165C12.7481 27.1254 12.3301 27.3007 11.8933 27.3045C11.4564 27.3083 11.0355 27.1403 10.7212 26.8368L2.21001 18.3323C1.06559 17.1856 0.422852 15.6317 0.422852 14.0117C0.422852 12.3916 1.06559 10.8378 2.21001 9.69109L10.7323 1.16322C10.9654 0.930035 11.2623 0.771218 11.5856 0.706863C11.909 0.642508 12.2441 0.675507 12.5487 0.801683C12.8532 0.92786 13.1135 1.14154 13.2966 1.4157C13.4797 1.68985 13.5773 2.01215 13.5772 2.34181Z" fill="white"/>
</svg>
